<mxfile host="app.diagrams.net" modified="2021-10-29T03:54:30.232Z" agent="5.0 (Windows NT 10.0; Win64; x64) AppleWebKit/537.36 (KHTML, like Gecko) Chrome/94.0.4606.71 Safari/537.36 Edg/94.0.992.38" etag="_39n-Ca58hrZ2J57ZQdD" version="15.6.2" type="github">
  <diagram id="fc3aKzUzdwYHnXCqWCgO" name="Page-1">
    <mxGraphModel dx="912" dy="1706" grid="1" gridSize="10" guides="1" tooltips="1" connect="1" arrows="1" fold="1" page="1" pageScale="1" pageWidth="850" pageHeight="1100" math="0" shadow="0">
      <root>
        <mxCell id="0" />
        <mxCell id="1" parent="0" />
        <mxCell id="Z2z92tPwG-cqTUB9P7gj-2" value="" style="rounded=1;whiteSpace=wrap;html=1;" vertex="1" parent="1">
          <mxGeometry x="70" y="180" width="720" height="50" as="geometry" />
        </mxCell>
        <mxCell id="Z2z92tPwG-cqTUB9P7gj-1" value="" style="endArrow=classic;html=1;rounded=0;fillColor=#f8cecc;strokeColor=#FF0000;strokeWidth=3;" edge="1" parent="1">
          <mxGeometry width="50" height="50" relative="1" as="geometry">
            <mxPoint x="86" y="204.5" as="sourcePoint" />
            <mxPoint x="666" y="204.5" as="targetPoint" />
          </mxGeometry>
        </mxCell>
        <mxCell id="Z2z92tPwG-cqTUB9P7gj-4" value="&lt;font color=&quot;#ff3333&quot;&gt;主干：&lt;/font&gt;master" style="text;html=1;strokeColor=none;fillColor=none;align=center;verticalAlign=middle;whiteSpace=wrap;rounded=0;fontStyle=1" vertex="1" parent="1">
          <mxGeometry x="660" y="190" width="120" height="30" as="geometry" />
        </mxCell>
        <mxCell id="Z2z92tPwG-cqTUB9P7gj-7" value="" style="rounded=1;whiteSpace=wrap;html=1;" vertex="1" parent="1">
          <mxGeometry x="70" y="250" width="720" height="50" as="geometry" />
        </mxCell>
        <mxCell id="Z2z92tPwG-cqTUB9P7gj-8" value="" style="endArrow=classic;html=1;rounded=0;fillColor=#e1d5e7;strokeColor=#9673a6;strokeWidth=3;" edge="1" parent="1">
          <mxGeometry width="50" height="50" relative="1" as="geometry">
            <mxPoint x="163" y="274.5" as="sourcePoint" />
            <mxPoint x="313" y="274.5" as="targetPoint" />
          </mxGeometry>
        </mxCell>
        <mxCell id="Z2z92tPwG-cqTUB9P7gj-9" value="&lt;font color=&quot;#cc00cc&quot;&gt;特性：&lt;/font&gt;feature" style="text;html=1;strokeColor=none;fillColor=none;align=center;verticalAlign=middle;whiteSpace=wrap;rounded=0;fontStyle=1" vertex="1" parent="1">
          <mxGeometry x="660" y="260" width="120" height="30" as="geometry" />
        </mxCell>
        <mxCell id="Z2z92tPwG-cqTUB9P7gj-12" value="" style="rounded=1;whiteSpace=wrap;html=1;" vertex="1" parent="1">
          <mxGeometry x="70" y="320" width="720" height="50" as="geometry" />
        </mxCell>
        <mxCell id="Z2z92tPwG-cqTUB9P7gj-14" value="&lt;font color=&quot;#97d077&quot;&gt;个人：&lt;/font&gt;personal" style="text;html=1;strokeColor=none;fillColor=none;align=center;verticalAlign=middle;whiteSpace=wrap;rounded=0;fontStyle=1" vertex="1" parent="1">
          <mxGeometry x="660" y="330" width="120" height="30" as="geometry" />
        </mxCell>
        <mxCell id="Z2z92tPwG-cqTUB9P7gj-18" value="" style="rounded=1;whiteSpace=wrap;html=1;" vertex="1" parent="1">
          <mxGeometry x="70" y="42" width="720" height="50" as="geometry" />
        </mxCell>
        <mxCell id="Z2z92tPwG-cqTUB9P7gj-19" value="" style="endArrow=classic;html=1;rounded=0;fillColor=#f8cecc;strokeColor=#990000;strokeWidth=3;" edge="1" parent="1">
          <mxGeometry width="50" height="50" relative="1" as="geometry">
            <mxPoint x="150" y="66.5" as="sourcePoint" />
            <mxPoint x="250" y="66.5" as="targetPoint" />
          </mxGeometry>
        </mxCell>
        <mxCell id="Z2z92tPwG-cqTUB9P7gj-20" value="&lt;font color=&quot;#990000&quot;&gt;问题修改：&lt;/font&gt;bugfix" style="text;html=1;strokeColor=none;fillColor=none;align=center;verticalAlign=middle;whiteSpace=wrap;rounded=0;fontStyle=1" vertex="1" parent="1">
          <mxGeometry x="660" y="52" width="120" height="30" as="geometry" />
        </mxCell>
        <mxCell id="Z2z92tPwG-cqTUB9P7gj-21" value="" style="endArrow=classic;html=1;rounded=0;fillColor=#e1d5e7;strokeColor=#9673a6;strokeWidth=3;" edge="1" parent="1">
          <mxGeometry width="50" height="50" relative="1" as="geometry">
            <mxPoint x="425" y="274.5" as="sourcePoint" />
            <mxPoint x="530" y="274.5" as="targetPoint" />
          </mxGeometry>
        </mxCell>
        <mxCell id="Z2z92tPwG-cqTUB9P7gj-22" value="" style="endArrow=classic;html=1;rounded=0;fillColor=#d5e8d4;strokeColor=#82b366;strokeWidth=3;" edge="1" parent="1">
          <mxGeometry width="50" height="50" relative="1" as="geometry">
            <mxPoint x="200" y="344.5" as="sourcePoint" />
            <mxPoint x="280" y="344.5" as="targetPoint" />
          </mxGeometry>
        </mxCell>
        <mxCell id="Z2z92tPwG-cqTUB9P7gj-23" value="" style="endArrow=classic;html=1;rounded=0;fillColor=#d5e8d4;strokeColor=#82b366;strokeWidth=3;" edge="1" parent="1">
          <mxGeometry width="50" height="50" relative="1" as="geometry">
            <mxPoint x="440" y="344.5" as="sourcePoint" />
            <mxPoint x="520" y="344.5" as="targetPoint" />
          </mxGeometry>
        </mxCell>
        <mxCell id="Z2z92tPwG-cqTUB9P7gj-24" value="" style="rounded=1;whiteSpace=wrap;html=1;" vertex="1" parent="1">
          <mxGeometry x="70" y="-32" width="720" height="55" as="geometry" />
        </mxCell>
        <mxCell id="Z2z92tPwG-cqTUB9P7gj-25" value="" style="endArrow=classic;html=1;rounded=0;fillColor=#d5e8d4;strokeColor=#82b366;strokeWidth=3;" edge="1" parent="1">
          <mxGeometry width="50" height="50" relative="1" as="geometry">
            <mxPoint x="178" y="2" as="sourcePoint" />
            <mxPoint x="220" y="2" as="targetPoint" />
          </mxGeometry>
        </mxCell>
        <mxCell id="Z2z92tPwG-cqTUB9P7gj-26" value="&lt;font color=&quot;#97d077&quot;&gt;个人：&lt;/font&gt;personal" style="text;html=1;strokeColor=none;fillColor=none;align=center;verticalAlign=middle;whiteSpace=wrap;rounded=0;fontStyle=1" vertex="1" parent="1">
          <mxGeometry x="660" y="-20" width="120" height="30" as="geometry" />
        </mxCell>
        <mxCell id="Z2z92tPwG-cqTUB9P7gj-29" value="" style="group;fontStyle=1" vertex="1" connectable="0" parent="1">
          <mxGeometry x="70" y="111" width="720" height="50" as="geometry" />
        </mxCell>
        <mxCell id="Z2z92tPwG-cqTUB9P7gj-15" value="" style="rounded=1;whiteSpace=wrap;html=1;" vertex="1" parent="Z2z92tPwG-cqTUB9P7gj-29">
          <mxGeometry width="720" height="50" as="geometry" />
        </mxCell>
        <mxCell id="Z2z92tPwG-cqTUB9P7gj-17" value="&lt;font color=&quot;#66b2ff&quot;&gt;发布：&lt;/font&gt;release" style="text;html=1;strokeColor=none;fillColor=none;align=center;verticalAlign=middle;whiteSpace=wrap;rounded=0;fontStyle=1" vertex="1" parent="Z2z92tPwG-cqTUB9P7gj-29">
          <mxGeometry x="590" y="10" width="120" height="30" as="geometry" />
        </mxCell>
        <mxCell id="Z2z92tPwG-cqTUB9P7gj-27" value="" style="endArrow=classic;html=1;rounded=0;fillColor=#dae8fc;strokeColor=#6c8ebf;strokeWidth=3;" edge="1" parent="Z2z92tPwG-cqTUB9P7gj-29">
          <mxGeometry width="50" height="50" relative="1" as="geometry">
            <mxPoint x="56" y="25" as="sourcePoint" />
            <mxPoint x="300" y="24.5" as="targetPoint" />
          </mxGeometry>
        </mxCell>
        <mxCell id="Z2z92tPwG-cqTUB9P7gj-28" value="" style="endArrow=classic;html=1;rounded=0;fillColor=#dae8fc;strokeColor=#6c8ebf;strokeWidth=3;" edge="1" parent="Z2z92tPwG-cqTUB9P7gj-29">
          <mxGeometry width="50" height="50" relative="1" as="geometry">
            <mxPoint x="430" y="25" as="sourcePoint" />
            <mxPoint x="510" y="24.5" as="targetPoint" />
          </mxGeometry>
        </mxCell>
        <mxCell id="Z2z92tPwG-cqTUB9P7gj-30" value="" style="endArrow=classic;html=1;rounded=0;strokeColor=#B3B3B3;strokeWidth=1;fillColor=#f5f5f5;" edge="1" parent="Z2z92tPwG-cqTUB9P7gj-29">
          <mxGeometry width="50" height="50" relative="1" as="geometry">
            <mxPoint x="20" y="89" as="sourcePoint" />
            <mxPoint x="50" y="29" as="targetPoint" />
          </mxGeometry>
        </mxCell>
        <mxCell id="Z2z92tPwG-cqTUB9P7gj-37" value="" style="endArrow=classic;html=1;rounded=0;strokeColor=#B3B3B3;strokeWidth=1;fillColor=#f5f5f5;dashed=1;" edge="1" parent="Z2z92tPwG-cqTUB9P7gj-29">
          <mxGeometry width="50" height="50" relative="1" as="geometry">
            <mxPoint x="302" y="31" as="sourcePoint" />
            <mxPoint x="332" y="91" as="targetPoint" />
          </mxGeometry>
        </mxCell>
        <mxCell id="Z2z92tPwG-cqTUB9P7gj-57" value="release/vUSNB092" style="text;html=1;strokeColor=none;fillColor=none;align=center;verticalAlign=middle;whiteSpace=wrap;rounded=0;" vertex="1" parent="Z2z92tPwG-cqTUB9P7gj-29">
          <mxGeometry x="94" y="-3" width="60" height="30" as="geometry" />
        </mxCell>
        <mxCell id="Z2z92tPwG-cqTUB9P7gj-58" value="release/vUSNSP100_PATCH" style="text;html=1;strokeColor=none;fillColor=none;align=center;verticalAlign=middle;whiteSpace=wrap;rounded=0;" vertex="1" parent="Z2z92tPwG-cqTUB9P7gj-29">
          <mxGeometry x="440" y="-3" width="60" height="30" as="geometry" />
        </mxCell>
        <mxCell id="Z2z92tPwG-cqTUB9P7gj-32" value="" style="endArrow=classic;html=1;rounded=0;strokeColor=#B3B3B3;strokeWidth=1;fillColor=#f5f5f5;" edge="1" parent="1">
          <mxGeometry width="50" height="50" relative="1" as="geometry">
            <mxPoint x="123" y="131" as="sourcePoint" />
            <mxPoint x="153" y="71" as="targetPoint" />
          </mxGeometry>
        </mxCell>
        <mxCell id="Z2z92tPwG-cqTUB9P7gj-33" value="" style="endArrow=classic;html=1;rounded=0;strokeColor=#B3B3B3;strokeWidth=1;fillColor=#f5f5f5;" edge="1" parent="1">
          <mxGeometry width="50" height="50" relative="1" as="geometry">
            <mxPoint x="151" y="62" as="sourcePoint" />
            <mxPoint x="181" y="9" as="targetPoint" />
          </mxGeometry>
        </mxCell>
        <mxCell id="Z2z92tPwG-cqTUB9P7gj-34" value="" style="endArrow=classic;html=1;rounded=0;fillColor=#d5e8d4;strokeColor=#82b366;strokeWidth=3;" edge="1" parent="1">
          <mxGeometry width="50" height="50" relative="1" as="geometry">
            <mxPoint x="299" y="2" as="sourcePoint" />
            <mxPoint x="337" y="2" as="targetPoint" />
            <Array as="points">
              <mxPoint x="295" y="2" />
            </Array>
          </mxGeometry>
        </mxCell>
        <mxCell id="Z2z92tPwG-cqTUB9P7gj-35" value="" style="endArrow=classic;html=1;rounded=0;strokeColor=#B3B3B3;strokeWidth=1;fillColor=#f5f5f5;" edge="1" parent="1">
          <mxGeometry width="50" height="50" relative="1" as="geometry">
            <mxPoint x="210" y="10" as="sourcePoint" />
            <mxPoint x="240" y="62" as="targetPoint" />
          </mxGeometry>
        </mxCell>
        <mxCell id="Z2z92tPwG-cqTUB9P7gj-36" value="" style="endArrow=classic;html=1;rounded=0;strokeColor=#B3B3B3;strokeWidth=1;fillColor=#f5f5f5;" edge="1" parent="1">
          <mxGeometry width="50" height="50" relative="1" as="geometry">
            <mxPoint x="242" y="73" as="sourcePoint" />
            <mxPoint x="272" y="133" as="targetPoint" />
          </mxGeometry>
        </mxCell>
        <mxCell id="Z2z92tPwG-cqTUB9P7gj-39" value="" style="endArrow=classic;html=1;rounded=0;strokeColor=#B3B3B3;strokeWidth=1;fillColor=#f5f5f5;" edge="1" parent="1">
          <mxGeometry width="50" height="50" relative="1" as="geometry">
            <mxPoint x="331" y="11" as="sourcePoint" />
            <mxPoint x="351" y="131" as="targetPoint" />
          </mxGeometry>
        </mxCell>
        <mxCell id="Z2z92tPwG-cqTUB9P7gj-40" value="" style="endArrow=classic;html=1;rounded=0;strokeColor=#B3B3B3;strokeWidth=1;fillColor=#f5f5f5;" edge="1" parent="1">
          <mxGeometry width="50" height="50" relative="1" as="geometry">
            <mxPoint x="282" y="129" as="sourcePoint" />
            <mxPoint x="302" y="9" as="targetPoint" />
          </mxGeometry>
        </mxCell>
        <mxCell id="Z2z92tPwG-cqTUB9P7gj-42" value="" style="endArrow=classic;html=1;rounded=0;strokeColor=#B3B3B3;strokeWidth=1;fillColor=#f5f5f5;" edge="1" parent="1">
          <mxGeometry width="50" height="50" relative="1" as="geometry">
            <mxPoint x="130" y="210" as="sourcePoint" />
            <mxPoint x="160" y="270" as="targetPoint" />
          </mxGeometry>
        </mxCell>
        <mxCell id="Z2z92tPwG-cqTUB9P7gj-44" value="" style="endArrow=classic;html=1;rounded=0;strokeColor=#B3B3B3;strokeWidth=1;fillColor=#f5f5f5;" edge="1" parent="1">
          <mxGeometry width="50" height="50" relative="1" as="geometry">
            <mxPoint x="395" y="211" as="sourcePoint" />
            <mxPoint x="425" y="271" as="targetPoint" />
          </mxGeometry>
        </mxCell>
        <mxCell id="Z2z92tPwG-cqTUB9P7gj-46" value="" style="endArrow=classic;html=1;rounded=0;strokeColor=#B3B3B3;strokeWidth=1;fillColor=#f5f5f5;" edge="1" parent="1">
          <mxGeometry width="50" height="50" relative="1" as="geometry">
            <mxPoint x="170" y="280" as="sourcePoint" />
            <mxPoint x="200" y="340" as="targetPoint" />
          </mxGeometry>
        </mxCell>
        <mxCell id="Z2z92tPwG-cqTUB9P7gj-47" value="" style="endArrow=classic;html=1;rounded=0;strokeColor=#B3B3B3;strokeWidth=1;fillColor=#f5f5f5;exitX=0.333;exitY=0.8;exitDx=0;exitDy=0;exitPerimeter=0;" edge="1" parent="1">
          <mxGeometry width="50" height="50" relative="1" as="geometry">
            <mxPoint x="365" y="212" as="sourcePoint" />
            <mxPoint x="430" y="340" as="targetPoint" />
          </mxGeometry>
        </mxCell>
        <mxCell id="Z2z92tPwG-cqTUB9P7gj-48" value="" style="endArrow=classic;html=1;rounded=0;strokeColor=#B3B3B3;strokeWidth=1;fillColor=#f5f5f5;" edge="1" parent="1">
          <mxGeometry width="50" height="50" relative="1" as="geometry">
            <mxPoint x="310" y="270" as="sourcePoint" />
            <mxPoint x="340" y="210" as="targetPoint" />
          </mxGeometry>
        </mxCell>
        <mxCell id="Z2z92tPwG-cqTUB9P7gj-49" value="" style="endArrow=classic;html=1;rounded=0;strokeColor=#B3B3B3;strokeWidth=1;fillColor=#f5f5f5;" edge="1" parent="1">
          <mxGeometry width="50" height="50" relative="1" as="geometry">
            <mxPoint x="280" y="340" as="sourcePoint" />
            <mxPoint x="310" y="280" as="targetPoint" />
          </mxGeometry>
        </mxCell>
        <mxCell id="Z2z92tPwG-cqTUB9P7gj-50" value="" style="endArrow=classic;html=1;rounded=0;strokeColor=#B3B3B3;strokeWidth=1;fillColor=#f5f5f5;" edge="1" parent="1">
          <mxGeometry width="50" height="50" relative="1" as="geometry">
            <mxPoint x="530" y="270" as="sourcePoint" />
            <mxPoint x="560" y="210" as="targetPoint" />
          </mxGeometry>
        </mxCell>
        <mxCell id="Z2z92tPwG-cqTUB9P7gj-51" value="" style="endArrow=classic;html=1;rounded=0;strokeColor=#B3B3B3;strokeWidth=1;fillColor=#f5f5f5;entryX=0.722;entryY=0.6;entryDx=0;entryDy=0;entryPerimeter=0;" edge="1" parent="1" target="Z2z92tPwG-cqTUB9P7gj-2">
          <mxGeometry width="50" height="50" relative="1" as="geometry">
            <mxPoint x="520" y="340" as="sourcePoint" />
            <mxPoint x="550" y="280" as="targetPoint" />
          </mxGeometry>
        </mxCell>
        <mxCell id="Z2z92tPwG-cqTUB9P7gj-52" value="" style="endArrow=classic;html=1;rounded=0;strokeColor=#B3B3B3;strokeWidth=1;fillColor=#f5f5f5;" edge="1" parent="1">
          <mxGeometry width="50" height="50" relative="1" as="geometry">
            <mxPoint x="470" y="200" as="sourcePoint" />
            <mxPoint x="500" y="140" as="targetPoint" />
          </mxGeometry>
        </mxCell>
        <mxCell id="Z2z92tPwG-cqTUB9P7gj-53" value="feature/CSFB" style="text;html=1;strokeColor=none;fillColor=none;align=center;verticalAlign=middle;whiteSpace=wrap;rounded=0;" vertex="1" parent="1">
          <mxGeometry x="203" y="274" width="60" height="30" as="geometry" />
        </mxCell>
        <mxCell id="Z2z92tPwG-cqTUB9P7gj-54" value="feature/PTT" style="text;html=1;strokeColor=none;fillColor=none;align=center;verticalAlign=middle;whiteSpace=wrap;rounded=0;" vertex="1" parent="1">
          <mxGeometry x="448" y="274" width="60" height="30" as="geometry" />
        </mxCell>
        <mxCell id="Z2z92tPwG-cqTUB9P7gj-55" value="personal/w00355640/CSFB" style="text;html=1;strokeColor=none;fillColor=none;align=center;verticalAlign=middle;whiteSpace=wrap;rounded=0;" vertex="1" parent="1">
          <mxGeometry x="210" y="345" width="60" height="30" as="geometry" />
        </mxCell>
        <mxCell id="Z2z92tPwG-cqTUB9P7gj-56" value="personal/w00355640/DTS2016110400496" style="text;html=1;strokeColor=none;fillColor=none;align=center;verticalAlign=middle;whiteSpace=wrap;rounded=0;" vertex="1" parent="1">
          <mxGeometry x="460" y="345" width="60" height="30" as="geometry" />
        </mxCell>
        <mxCell id="Z2z92tPwG-cqTUB9P7gj-77" value="bugfix/vUSNB092" style="text;html=1;strokeColor=none;fillColor=none;align=center;verticalAlign=middle;whiteSpace=wrap;rounded=0;" vertex="1" parent="1">
          <mxGeometry x="170" y="40" width="60" height="30" as="geometry" />
        </mxCell>
        <mxCell id="Z2z92tPwG-cqTUB9P7gj-78" value="personal/w00355640&lt;br&gt;/DTS2016110400496" style="text;html=1;strokeColor=none;fillColor=none;align=center;verticalAlign=middle;whiteSpace=wrap;rounded=0;" vertex="1" parent="1">
          <mxGeometry x="170" y="-32" width="60" height="30" as="geometry" />
        </mxCell>
        <mxCell id="Z2z92tPwG-cqTUB9P7gj-79" value="personal/w00230282&lt;br&gt;/DTS2016110400496" style="text;html=1;strokeColor=none;fillColor=none;align=center;verticalAlign=middle;whiteSpace=wrap;rounded=0;" vertex="1" parent="1">
          <mxGeometry x="295" y="-33" width="60" height="30" as="geometry" />
        </mxCell>
      </root>
    </mxGraphModel>
  </diagram>
</mxfile>
